<svg width="219" height="90" viewBox="0 0 219 90" fill="none" xmlns="http://www.w3.org/2000/svg">
<mask id="path-1-outside-1_6_142" maskUnits="userSpaceOnUse" x="-0.960785" y="0" width="220" height="90" fill="black">
<rect fill="white" x="-0.960785" width="220" height="90"/>
<path d="M1.03922 30.0068H10.742C10.9113 31.1583 11.4363 32.1743 12.3168 33.0548C13.1973 33.9353 14.3657 34.6127 15.822 35.0868C17.3121 35.5609 19.0393 35.798 21.0036 35.798C23.8145 35.798 26.0159 35.4085 27.6076 34.6296C29.2332 33.8507 30.046 32.75 30.046 31.3276C30.046 30.2439 29.5719 29.4141 28.6236 28.8384C27.7092 28.2288 25.982 27.7885 23.442 27.5176L16.076 26.7556C10.9621 26.2476 7.25375 25.0623 4.95082 23.1996C2.68175 21.3369 1.54722 18.7969 1.54722 15.5796C1.54722 13.0396 2.29228 10.8721 3.78242 9.0772C5.30642 7.28227 7.42308 5.91067 10.1324 4.9624C12.8756 4.01413 16.076 3.54 19.7336 3.54C23.3573 3.54 26.5577 4.06493 29.3348 5.1148C32.1119 6.16467 34.3302 7.62093 35.9896 9.4836C37.6491 11.3463 38.5466 13.5307 38.682 16.0368H28.9792C28.8437 14.9869 28.3696 14.1064 27.5568 13.3952C26.7779 12.6501 25.7111 12.0744 24.3564 11.668C23.0356 11.2277 21.4439 11.0076 19.5812 11.0076C17.0073 11.0076 14.9584 11.3801 13.4344 12.1252C11.9443 12.8364 11.1992 13.8693 11.1992 15.224C11.1992 16.24 11.6395 17.0359 12.52 17.6116C13.4344 18.1873 15.0431 18.6107 17.346 18.8816L25.1184 19.7452C28.6744 20.1177 31.5192 20.7104 33.6528 21.5232C35.7864 22.336 37.3273 23.4536 38.2756 24.876C39.2239 26.2984 39.698 28.0933 39.698 30.2608C39.698 32.8685 38.9022 35.1545 37.3104 37.1188C35.7526 39.0492 33.5512 40.5563 30.7064 41.64C27.8955 42.7237 24.6104 43.2656 20.8512 43.2656C16.9565 43.2656 13.536 42.7068 10.5896 41.5892C7.67708 40.4716 5.37415 38.9307 3.68082 36.9664C2.02135 34.9683 1.14082 32.6484 1.03922 30.0068Z"/>
<path d="M41.3831 20.5072V16.3924L47.3775 14.208L51.4415 5.7752H56.8263V13.4968H69.3232V20.5072H56.8263V30.0576C56.8263 32.2251 57.2666 33.7491 58.1471 34.6296C59.0277 35.4763 60.6025 35.8996 62.8715 35.8996C64.3278 35.8996 65.5978 35.7811 66.6815 35.544C67.7991 35.2731 68.849 34.9175 69.8311 34.4772V41.64C68.8151 42.0464 67.4774 42.4189 65.8179 42.7576C64.1923 43.0963 62.499 43.2656 60.7379 43.2656C57.6561 43.2656 55.1161 42.7745 53.1179 41.7924C51.1537 40.8103 49.6974 39.4387 48.7491 37.6776C47.8347 35.8827 47.3775 33.7829 47.3775 31.3784V20.5072H41.3831Z"/>
<path d="M86.5352 43.2148C83.8259 43.2148 81.523 42.6729 79.6264 41.5892C77.7299 40.4716 76.2736 38.8968 75.2576 36.8648C74.2755 34.8328 73.7844 32.4283 73.7844 29.6512V13.4968H83.2332V28.2796C83.2332 30.6164 83.792 32.4113 84.9096 33.6644C86.0272 34.9175 87.6359 35.544 89.7356 35.544C91.2935 35.544 92.6143 35.2223 93.698 34.5788C94.7817 33.9353 95.6115 33.004 96.1872 31.7848C96.7968 30.5656 97.1016 29.1263 97.1016 27.4668L100.048 29.0416C99.7093 32.0896 98.8966 34.6804 97.6096 36.814C96.3566 38.9137 94.7648 40.5055 92.8344 41.5892C90.9379 42.6729 88.8382 43.2148 86.5352 43.2148ZM98.9304 42.4528L97.1016 31.1752V13.4968H106.55V32.5976L108.379 42.4528H98.9304Z"/>
<path d="M139.452 42.4528L138.182 31.5308L139.909 28.0764L138.233 23.7076L140.57 3.3368H150.374L147.479 27.2636L149.206 42.4528H139.452ZM141.637 27.9748C141.129 31.0567 140.163 33.7491 138.741 36.052C137.319 38.3211 135.524 40.0991 133.356 41.386C131.189 42.6391 128.75 43.2656 126.041 43.2656C123.196 43.2656 120.69 42.6221 118.523 41.3352C116.389 40.0483 114.713 38.2703 113.493 36.0012C112.274 33.6983 111.665 31.0228 111.665 27.9748C111.665 24.9268 112.274 22.2683 113.493 19.9992C114.713 17.6963 116.389 15.9013 118.523 14.6144C120.69 13.3275 123.196 12.684 126.041 12.684C128.75 12.684 131.189 13.3275 133.356 14.6144C135.524 15.8675 137.319 17.6285 138.741 19.8976C140.197 22.1667 141.162 24.8591 141.637 27.9748ZM121.215 27.9748C121.215 29.5327 121.537 30.9212 122.18 32.1404C122.824 33.3257 123.704 34.274 124.822 34.9852C125.973 35.6625 127.294 36.0012 128.784 36.0012C130.274 36.0012 131.68 35.6625 133.001 34.9852C134.355 34.274 135.541 33.3257 136.557 32.1404C137.573 30.9212 138.335 29.5327 138.843 27.9748C138.335 26.4169 137.573 25.0453 136.557 23.86C135.541 22.6408 134.355 21.6925 133.001 21.0152C131.68 20.304 130.274 19.9484 128.784 19.9484C127.294 19.9484 125.973 20.304 124.822 21.0152C123.704 21.6925 122.824 22.6408 122.18 23.86C121.537 25.0453 121.215 26.4169 121.215 27.9748Z"/>
<path d="M154.558 13.0904L159.232 14.0556L163.956 13.0904V42.4528H154.558V13.0904ZM159.282 10.4488C157.623 10.4488 156.268 10.0255 155.218 9.1788C154.169 8.29827 153.644 7.1468 153.644 5.7244C153.644 4.26813 154.169 3.11667 155.218 2.27C156.268 1.42333 157.623 1 159.282 1C160.976 1 162.33 1.42333 163.346 2.27C164.362 3.11667 164.87 4.26813 164.87 5.7244C164.87 7.1468 164.362 8.29827 163.346 9.1788C162.33 10.0255 160.976 10.4488 159.282 10.4488Z"/>
<path d="M186.902 43.2656C183.244 43.2656 180.044 42.6221 177.301 41.3352C174.557 40.0483 172.424 38.2533 170.9 35.9504C169.376 33.6475 168.614 30.9889 168.614 27.9748C168.614 24.9268 169.376 22.2683 170.9 19.9992C172.424 17.6963 174.557 15.9013 177.301 14.6144C180.078 13.3275 183.278 12.684 186.902 12.684C190.559 12.684 193.76 13.3275 196.503 14.6144C199.28 15.9013 201.431 17.6963 202.955 19.9992C204.479 22.2683 205.241 24.9268 205.241 27.9748C205.241 31.0228 204.479 33.6983 202.955 36.0012C201.431 38.2703 199.28 40.0483 196.503 41.3352C193.76 42.6221 190.559 43.2656 186.902 43.2656ZM186.902 36.1536C188.764 36.1536 190.339 35.8319 191.626 35.1884C192.947 34.5111 193.946 33.5628 194.623 32.3436C195.335 31.1244 195.69 29.6681 195.69 27.9748C195.69 26.2815 195.335 24.8252 194.623 23.606C193.946 22.3868 192.947 21.4555 191.626 20.812C190.339 20.1347 188.764 19.796 186.902 19.796C185.107 19.796 183.549 20.1347 182.228 20.812C180.907 21.4555 179.891 22.3868 179.18 23.606C178.469 24.8252 178.113 26.2815 178.113 27.9748C178.113 29.6681 178.469 31.1244 179.18 32.3436C179.891 33.5628 180.907 34.5111 182.228 35.1884C183.549 35.8319 185.107 36.1536 186.902 36.1536Z"/>
<path d="M13.0392 75.0068H22.742C22.9113 76.1583 23.4363 77.1743 24.3168 78.0548C25.1973 78.9353 26.3657 79.6127 27.822 80.0868C29.3121 80.5609 31.0393 80.798 33.0036 80.798C35.8145 80.798 38.0159 80.4085 39.6076 79.6296C41.2332 78.8507 42.046 77.75 42.046 76.3276C42.046 75.2439 41.5719 74.4141 40.6236 73.8384C39.7092 73.2288 37.982 72.7885 35.442 72.5176L28.076 71.7556C22.9621 71.2476 19.2537 70.0623 16.9508 68.1996C14.6817 66.3369 13.5472 63.7969 13.5472 60.5796C13.5472 58.0396 14.2923 55.8721 15.7824 54.0772C17.3064 52.2823 19.4231 50.9107 22.1324 49.9624C24.8756 49.0141 28.076 48.54 31.7336 48.54C35.3573 48.54 38.5577 49.0649 41.3348 50.1148C44.1119 51.1647 46.3302 52.6209 47.9896 54.4836C49.6491 56.3463 50.5466 58.5307 50.682 61.0368H40.9792C40.8437 59.9869 40.3696 59.1064 39.5568 58.3952C38.7779 57.6501 37.7111 57.0744 36.3564 56.668C35.0356 56.2277 33.4439 56.0076 31.5812 56.0076C29.0073 56.0076 26.9584 56.3801 25.4344 57.1252C23.9443 57.8364 23.1992 58.8693 23.1992 60.224C23.1992 61.24 23.6395 62.0359 24.52 62.6116C25.4344 63.1873 27.0431 63.6107 29.346 63.8816L37.1184 64.7452C40.6744 65.1177 43.5192 65.7104 45.6528 66.5232C47.7864 67.336 49.3273 68.4536 50.2756 69.876C51.2239 71.2984 51.698 73.0933 51.698 75.2608C51.698 77.8685 50.9022 80.1545 49.3104 82.1188C47.7526 84.0492 45.5512 85.5563 42.7064 86.64C39.8955 87.7237 36.6104 88.2656 32.8512 88.2656C28.9565 88.2656 25.536 87.7068 22.5896 86.5892C19.6771 85.4716 17.3741 83.9307 15.6808 81.9664C14.0213 79.9683 13.1408 77.6484 13.0392 75.0068ZM53.3831 65.5072V61.3924L59.3775 59.208L63.4415 50.7752H68.8263V58.4968H81.3232V65.5072H68.8263V75.0576C68.8263 77.2251 69.2666 78.7491 70.1471 79.6296C71.0277 80.4763 72.6025 80.8996 74.8716 80.8996C76.3278 80.8996 77.5978 80.7811 78.6815 80.544C79.7991 80.2731 80.849 79.9175 81.8311 79.4772V86.64C80.8151 87.0464 79.4774 87.4189 77.8179 87.7576C76.1923 88.0963 74.499 88.2656 72.7379 88.2656C69.6561 88.2656 67.1161 87.7745 65.118 86.7924C63.1537 85.8103 61.6974 84.4387 60.7491 82.6776C59.8347 80.8827 59.3775 78.7829 59.3775 76.3784V65.5072H53.3831ZM98.5352 88.2148C95.8259 88.2148 93.523 87.6729 91.6264 86.5892C89.7299 85.4716 88.2736 83.8968 87.2576 81.8648C86.2755 79.8328 85.7844 77.4283 85.7844 74.6512V58.4968H95.2332V73.2796C95.2332 75.6164 95.792 77.4113 96.9096 78.6644C98.0272 79.9175 99.6359 80.544 101.736 80.544C103.293 80.544 104.614 80.2223 105.698 79.5788C106.782 78.9353 107.611 78.004 108.187 76.7848C108.797 75.5656 109.102 74.1263 109.102 72.4668L112.048 74.0416C111.709 77.0896 110.897 79.6804 109.61 81.814C108.357 83.9137 106.765 85.5055 104.834 86.5892C102.938 87.6729 100.838 88.2148 98.5352 88.2148ZM110.93 87.4528L109.102 76.1752V58.4968H118.55V77.5976L120.379 87.4528H110.93ZM151.452 87.4528L150.182 76.5308L151.909 73.0764L150.233 68.7076L152.57 48.3368H162.374L159.479 72.2636L161.206 87.4528H151.452ZM153.637 72.9748C153.129 76.0567 152.163 78.7491 150.741 81.052C149.319 83.3211 147.524 85.0991 145.356 86.386C143.189 87.6391 140.75 88.2656 138.041 88.2656C135.196 88.2656 132.69 87.6221 130.523 86.3352C128.389 85.0483 126.713 83.2703 125.493 81.0012C124.274 78.6983 123.665 76.0228 123.665 72.9748C123.665 69.9268 124.274 67.2683 125.493 64.9992C126.713 62.6963 128.389 60.9013 130.523 59.6144C132.69 58.3275 135.196 57.684 138.041 57.684C140.75 57.684 143.189 58.3275 145.356 59.6144C147.524 60.8675 149.319 62.6285 150.741 64.8976C152.197 67.1667 153.162 69.8591 153.637 72.9748ZM133.215 72.9748C133.215 74.5327 133.537 75.9212 134.18 77.1404C134.824 78.3257 135.704 79.274 136.822 79.9852C137.973 80.6625 139.294 81.0012 140.784 81.0012C142.274 81.0012 143.68 80.6625 145.001 79.9852C146.355 79.274 147.541 78.3257 148.557 77.1404C149.573 75.9212 150.335 74.5327 150.843 72.9748C150.335 71.4169 149.573 70.0453 148.557 68.86C147.541 67.6408 146.355 66.6925 145.001 66.0152C143.68 65.304 142.274 64.9484 140.784 64.9484C139.294 64.9484 137.973 65.304 136.822 66.0152C135.704 66.6925 134.824 67.6408 134.18 68.86C133.537 70.0453 133.215 71.4169 133.215 72.9748ZM166.558 58.0904L171.232 59.0556L175.956 58.0904V87.4528H166.558V58.0904ZM171.282 55.4488C169.623 55.4488 168.268 55.0255 167.218 54.1788C166.169 53.2983 165.644 52.1468 165.644 50.7244C165.644 49.2681 166.169 48.1167 167.218 47.27C168.268 46.4233 169.623 46 171.282 46C172.976 46 174.33 46.4233 175.346 47.27C176.362 48.1167 176.87 49.2681 176.87 50.7244C176.87 52.1468 176.362 53.2983 175.346 54.1788C174.33 55.0255 172.976 55.4488 171.282 55.4488ZM198.902 88.2656C195.244 88.2656 192.044 87.6221 189.301 86.3352C186.557 85.0483 184.424 83.2533 182.9 80.9504C181.376 78.6475 180.614 75.9889 180.614 72.9748C180.614 69.9268 181.376 67.2683 182.9 64.9992C184.424 62.6963 186.557 60.9013 189.301 59.6144C192.078 58.3275 195.278 57.684 198.902 57.684C202.559 57.684 205.76 58.3275 208.503 59.6144C211.28 60.9013 213.431 62.6963 214.955 64.9992C216.479 67.2683 217.241 69.9268 217.241 72.9748C217.241 76.0228 216.479 78.6983 214.955 81.0012C213.431 83.2703 211.28 85.0483 208.503 86.3352C205.76 87.6221 202.559 88.2656 198.902 88.2656ZM198.902 81.1536C200.764 81.1536 202.339 80.8319 203.626 80.1884C204.947 79.5111 205.946 78.5628 206.623 77.3436C207.335 76.1244 207.69 74.6681 207.69 72.9748C207.69 71.2815 207.335 69.8252 206.623 68.606C205.946 67.3868 204.947 66.4555 203.626 65.812C202.339 65.1347 200.764 64.796 198.902 64.796C197.107 64.796 195.549 65.1347 194.228 65.812C192.907 66.4555 191.891 67.3868 191.18 68.606C190.469 69.8252 190.113 71.2815 190.113 72.9748C190.113 74.6681 190.469 76.1244 191.18 77.3436C191.891 78.5628 192.907 79.5111 194.228 80.1884C195.549 80.8319 197.107 81.1536 198.902 81.1536Z"/>
</mask>
<path d="M1.03922 30.0068H10.742C10.9113 31.1583 11.4363 32.1743 12.3168 33.0548C13.1973 33.9353 14.3657 34.6127 15.822 35.0868C17.3121 35.5609 19.0393 35.798 21.0036 35.798C23.8145 35.798 26.0159 35.4085 27.6076 34.6296C29.2332 33.8507 30.046 32.75 30.046 31.3276C30.046 30.2439 29.5719 29.4141 28.6236 28.8384C27.7092 28.2288 25.982 27.7885 23.442 27.5176L16.076 26.7556C10.9621 26.2476 7.25375 25.0623 4.95082 23.1996C2.68175 21.3369 1.54722 18.7969 1.54722 15.5796C1.54722 13.0396 2.29228 10.8721 3.78242 9.0772C5.30642 7.28227 7.42308 5.91067 10.1324 4.9624C12.8756 4.01413 16.076 3.54 19.7336 3.54C23.3573 3.54 26.5577 4.06493 29.3348 5.1148C32.1119 6.16467 34.3302 7.62093 35.9896 9.4836C37.6491 11.3463 38.5466 13.5307 38.682 16.0368H28.9792C28.8437 14.9869 28.3696 14.1064 27.5568 13.3952C26.7779 12.6501 25.7111 12.0744 24.3564 11.668C23.0356 11.2277 21.4439 11.0076 19.5812 11.0076C17.0073 11.0076 14.9584 11.3801 13.4344 12.1252C11.9443 12.8364 11.1992 13.8693 11.1992 15.224C11.1992 16.24 11.6395 17.0359 12.52 17.6116C13.4344 18.1873 15.0431 18.6107 17.346 18.8816L25.1184 19.7452C28.6744 20.1177 31.5192 20.7104 33.6528 21.5232C35.7864 22.336 37.3273 23.4536 38.2756 24.876C39.2239 26.2984 39.698 28.0933 39.698 30.2608C39.698 32.8685 38.9022 35.1545 37.3104 37.1188C35.7526 39.0492 33.5512 40.5563 30.7064 41.64C27.8955 42.7237 24.6104 43.2656 20.8512 43.2656C16.9565 43.2656 13.536 42.7068 10.5896 41.5892C7.67708 40.4716 5.37415 38.9307 3.68082 36.9664C2.02135 34.9683 1.14082 32.6484 1.03922 30.0068Z" fill="black"/>
<path d="M41.3831 20.5072V16.3924L47.3775 14.208L51.4415 5.7752H56.8263V13.4968H69.3232V20.5072H56.8263V30.0576C56.8263 32.2251 57.2666 33.7491 58.1471 34.6296C59.0277 35.4763 60.6025 35.8996 62.8715 35.8996C64.3278 35.8996 65.5978 35.7811 66.6815 35.544C67.7991 35.2731 68.849 34.9175 69.8311 34.4772V41.64C68.8151 42.0464 67.4774 42.4189 65.8179 42.7576C64.1923 43.0963 62.499 43.2656 60.7379 43.2656C57.6561 43.2656 55.1161 42.7745 53.1179 41.7924C51.1537 40.8103 49.6974 39.4387 48.7491 37.6776C47.8347 35.8827 47.3775 33.7829 47.3775 31.3784V20.5072H41.3831Z" fill="black"/>
<path d="M86.5352 43.2148C83.8259 43.2148 81.523 42.6729 79.6264 41.5892C77.7299 40.4716 76.2736 38.8968 75.2576 36.8648C74.2755 34.8328 73.7844 32.4283 73.7844 29.6512V13.4968H83.2332V28.2796C83.2332 30.6164 83.792 32.4113 84.9096 33.6644C86.0272 34.9175 87.6359 35.544 89.7356 35.544C91.2935 35.544 92.6143 35.2223 93.698 34.5788C94.7817 33.9353 95.6115 33.004 96.1872 31.7848C96.7968 30.5656 97.1016 29.1263 97.1016 27.4668L100.048 29.0416C99.7093 32.0896 98.8966 34.6804 97.6096 36.814C96.3566 38.9137 94.7648 40.5055 92.8344 41.5892C90.9379 42.6729 88.8382 43.2148 86.5352 43.2148ZM98.9304 42.4528L97.1016 31.1752V13.4968H106.55V32.5976L108.379 42.4528H98.9304Z" fill="black"/>
<path d="M139.452 42.4528L138.182 31.5308L139.909 28.0764L138.233 23.7076L140.57 3.3368H150.374L147.479 27.2636L149.206 42.4528H139.452ZM141.637 27.9748C141.129 31.0567 140.163 33.7491 138.741 36.052C137.319 38.3211 135.524 40.0991 133.356 41.386C131.189 42.6391 128.75 43.2656 126.041 43.2656C123.196 43.2656 120.69 42.6221 118.523 41.3352C116.389 40.0483 114.713 38.2703 113.493 36.0012C112.274 33.6983 111.665 31.0228 111.665 27.9748C111.665 24.9268 112.274 22.2683 113.493 19.9992C114.713 17.6963 116.389 15.9013 118.523 14.6144C120.69 13.3275 123.196 12.684 126.041 12.684C128.75 12.684 131.189 13.3275 133.356 14.6144C135.524 15.8675 137.319 17.6285 138.741 19.8976C140.197 22.1667 141.162 24.8591 141.637 27.9748ZM121.215 27.9748C121.215 29.5327 121.537 30.9212 122.18 32.1404C122.824 33.3257 123.704 34.274 124.822 34.9852C125.973 35.6625 127.294 36.0012 128.784 36.0012C130.274 36.0012 131.68 35.6625 133.001 34.9852C134.355 34.274 135.541 33.3257 136.557 32.1404C137.573 30.9212 138.335 29.5327 138.843 27.9748C138.335 26.4169 137.573 25.0453 136.557 23.86C135.541 22.6408 134.355 21.6925 133.001 21.0152C131.68 20.304 130.274 19.9484 128.784 19.9484C127.294 19.9484 125.973 20.304 124.822 21.0152C123.704 21.6925 122.824 22.6408 122.18 23.86C121.537 25.0453 121.215 26.4169 121.215 27.9748Z" fill="black"/>
<path d="M154.558 13.0904L159.232 14.0556L163.956 13.0904V42.4528H154.558V13.0904ZM159.282 10.4488C157.623 10.4488 156.268 10.0255 155.218 9.1788C154.169 8.29827 153.644 7.1468 153.644 5.7244C153.644 4.26813 154.169 3.11667 155.218 2.27C156.268 1.42333 157.623 1 159.282 1C160.976 1 162.33 1.42333 163.346 2.27C164.362 3.11667 164.87 4.26813 164.87 5.7244C164.87 7.1468 164.362 8.29827 163.346 9.1788C162.33 10.0255 160.976 10.4488 159.282 10.4488Z" fill="black"/>
<path d="M186.902 43.2656C183.244 43.2656 180.044 42.6221 177.301 41.3352C174.557 40.0483 172.424 38.2533 170.9 35.9504C169.376 33.6475 168.614 30.9889 168.614 27.9748C168.614 24.9268 169.376 22.2683 170.9 19.9992C172.424 17.6963 174.557 15.9013 177.301 14.6144C180.078 13.3275 183.278 12.684 186.902 12.684C190.559 12.684 193.76 13.3275 196.503 14.6144C199.28 15.9013 201.431 17.6963 202.955 19.9992C204.479 22.2683 205.241 24.9268 205.241 27.9748C205.241 31.0228 204.479 33.6983 202.955 36.0012C201.431 38.2703 199.28 40.0483 196.503 41.3352C193.76 42.6221 190.559 43.2656 186.902 43.2656ZM186.902 36.1536C188.764 36.1536 190.339 35.8319 191.626 35.1884C192.947 34.5111 193.946 33.5628 194.623 32.3436C195.335 31.1244 195.69 29.6681 195.69 27.9748C195.69 26.2815 195.335 24.8252 194.623 23.606C193.946 22.3868 192.947 21.4555 191.626 20.812C190.339 20.1347 188.764 19.796 186.902 19.796C185.107 19.796 183.549 20.1347 182.228 20.812C180.907 21.4555 179.891 22.3868 179.18 23.606C178.469 24.8252 178.113 26.2815 178.113 27.9748C178.113 29.6681 178.469 31.1244 179.18 32.3436C179.891 33.5628 180.907 34.5111 182.228 35.1884C183.549 35.8319 185.107 36.1536 186.902 36.1536Z" fill="black"/>
<path d="M1.03922 30.0068H10.742C10.9113 31.1583 11.4363 32.1743 12.3168 33.0548C13.1973 33.9353 14.3657 34.6127 15.822 35.0868C17.3121 35.5609 19.0393 35.798 21.0036 35.798C23.8145 35.798 26.0159 35.4085 27.6076 34.6296C29.2332 33.8507 30.046 32.75 30.046 31.3276C30.046 30.2439 29.5719 29.4141 28.6236 28.8384C27.7092 28.2288 25.982 27.7885 23.442 27.5176L16.076 26.7556C10.9621 26.2476 7.25375 25.0623 4.95082 23.1996C2.68175 21.3369 1.54722 18.7969 1.54722 15.5796C1.54722 13.0396 2.29228 10.8721 3.78242 9.0772C5.30642 7.28227 7.42308 5.91067 10.1324 4.9624C12.8756 4.01413 16.076 3.54 19.7336 3.54C23.3573 3.54 26.5577 4.06493 29.3348 5.1148C32.1119 6.16467 34.3302 7.62093 35.9896 9.4836C37.6491 11.3463 38.5466 13.5307 38.682 16.0368H28.9792C28.8437 14.9869 28.3696 14.1064 27.5568 13.3952C26.7779 12.6501 25.7111 12.0744 24.3564 11.668C23.0356 11.2277 21.4439 11.0076 19.5812 11.0076C17.0073 11.0076 14.9584 11.3801 13.4344 12.1252C11.9443 12.8364 11.1992 13.8693 11.1992 15.224C11.1992 16.24 11.6395 17.0359 12.52 17.6116C13.4344 18.1873 15.0431 18.6107 17.346 18.8816L25.1184 19.7452C28.6744 20.1177 31.5192 20.7104 33.6528 21.5232C35.7864 22.336 37.3273 23.4536 38.2756 24.876C39.2239 26.2984 39.698 28.0933 39.698 30.2608C39.698 32.8685 38.9022 35.1545 37.3104 37.1188C35.7526 39.0492 33.5512 40.5563 30.7064 41.64C27.8955 42.7237 24.6104 43.2656 20.8512 43.2656C16.9565 43.2656 13.536 42.7068 10.5896 41.5892C7.67708 40.4716 5.37415 38.9307 3.68082 36.9664C2.02135 34.9683 1.14082 32.6484 1.03922 30.0068Z" stroke="black" stroke-width="2" mask="url(#path-1-outside-1_6_142)"/>
<path d="M41.3831 20.5072V16.3924L47.3775 14.208L51.4415 5.7752H56.8263V13.4968H69.3232V20.5072H56.8263V30.0576C56.8263 32.2251 57.2666 33.7491 58.1471 34.6296C59.0277 35.4763 60.6025 35.8996 62.8715 35.8996C64.3278 35.8996 65.5978 35.7811 66.6815 35.544C67.7991 35.2731 68.849 34.9175 69.8311 34.4772V41.64C68.8151 42.0464 67.4774 42.4189 65.8179 42.7576C64.1923 43.0963 62.499 43.2656 60.7379 43.2656C57.6561 43.2656 55.1161 42.7745 53.1179 41.7924C51.1537 40.8103 49.6974 39.4387 48.7491 37.6776C47.8347 35.8827 47.3775 33.7829 47.3775 31.3784V20.5072H41.3831Z" stroke="black" stroke-width="2" mask="url(#path-1-outside-1_6_142)"/>
<path d="M86.5352 43.2148C83.8259 43.2148 81.523 42.6729 79.6264 41.5892C77.7299 40.4716 76.2736 38.8968 75.2576 36.8648C74.2755 34.8328 73.7844 32.4283 73.7844 29.6512V13.4968H83.2332V28.2796C83.2332 30.6164 83.792 32.4113 84.9096 33.6644C86.0272 34.9175 87.6359 35.544 89.7356 35.544C91.2935 35.544 92.6143 35.2223 93.698 34.5788C94.7817 33.9353 95.6115 33.004 96.1872 31.7848C96.7968 30.5656 97.1016 29.1263 97.1016 27.4668L100.048 29.0416C99.7093 32.0896 98.8966 34.6804 97.6096 36.814C96.3566 38.9137 94.7648 40.5055 92.8344 41.5892C90.9379 42.6729 88.8382 43.2148 86.5352 43.2148ZM98.9304 42.4528L97.1016 31.1752V13.4968H106.55V32.5976L108.379 42.4528H98.9304Z" stroke="black" stroke-width="2" mask="url(#path-1-outside-1_6_142)"/>
<path d="M139.452 42.4528L138.182 31.5308L139.909 28.0764L138.233 23.7076L140.57 3.3368H150.374L147.479 27.2636L149.206 42.4528H139.452ZM141.637 27.9748C141.129 31.0567 140.163 33.7491 138.741 36.052C137.319 38.3211 135.524 40.0991 133.356 41.386C131.189 42.6391 128.75 43.2656 126.041 43.2656C123.196 43.2656 120.69 42.6221 118.523 41.3352C116.389 40.0483 114.713 38.2703 113.493 36.0012C112.274 33.6983 111.665 31.0228 111.665 27.9748C111.665 24.9268 112.274 22.2683 113.493 19.9992C114.713 17.6963 116.389 15.9013 118.523 14.6144C120.69 13.3275 123.196 12.684 126.041 12.684C128.75 12.684 131.189 13.3275 133.356 14.6144C135.524 15.8675 137.319 17.6285 138.741 19.8976C140.197 22.1667 141.162 24.8591 141.637 27.9748ZM121.215 27.9748C121.215 29.5327 121.537 30.9212 122.18 32.1404C122.824 33.3257 123.704 34.274 124.822 34.9852C125.973 35.6625 127.294 36.0012 128.784 36.0012C130.274 36.0012 131.68 35.6625 133.001 34.9852C134.355 34.274 135.541 33.3257 136.557 32.1404C137.573 30.9212 138.335 29.5327 138.843 27.9748C138.335 26.4169 137.573 25.0453 136.557 23.86C135.541 22.6408 134.355 21.6925 133.001 21.0152C131.68 20.304 130.274 19.9484 128.784 19.9484C127.294 19.9484 125.973 20.304 124.822 21.0152C123.704 21.6925 122.824 22.6408 122.18 23.86C121.537 25.0453 121.215 26.4169 121.215 27.9748Z" stroke="black" stroke-width="2" mask="url(#path-1-outside-1_6_142)"/>
<path d="M154.558 13.0904L159.232 14.0556L163.956 13.0904V42.4528H154.558V13.0904ZM159.282 10.4488C157.623 10.4488 156.268 10.0255 155.218 9.1788C154.169 8.29827 153.644 7.1468 153.644 5.7244C153.644 4.26813 154.169 3.11667 155.218 2.27C156.268 1.42333 157.623 1 159.282 1C160.976 1 162.33 1.42333 163.346 2.27C164.362 3.11667 164.87 4.26813 164.87 5.7244C164.87 7.1468 164.362 8.29827 163.346 9.1788C162.33 10.0255 160.976 10.4488 159.282 10.4488Z" stroke="black" stroke-width="2" mask="url(#path-1-outside-1_6_142)"/>
<path d="M186.902 43.2656C183.244 43.2656 180.044 42.6221 177.301 41.3352C174.557 40.0483 172.424 38.2533 170.9 35.9504C169.376 33.6475 168.614 30.9889 168.614 27.9748C168.614 24.9268 169.376 22.2683 170.9 19.9992C172.424 17.6963 174.557 15.9013 177.301 14.6144C180.078 13.3275 183.278 12.684 186.902 12.684C190.559 12.684 193.76 13.3275 196.503 14.6144C199.28 15.9013 201.431 17.6963 202.955 19.9992C204.479 22.2683 205.241 24.9268 205.241 27.9748C205.241 31.0228 204.479 33.6983 202.955 36.0012C201.431 38.2703 199.28 40.0483 196.503 41.3352C193.76 42.6221 190.559 43.2656 186.902 43.2656ZM186.902 36.1536C188.764 36.1536 190.339 35.8319 191.626 35.1884C192.947 34.5111 193.946 33.5628 194.623 32.3436C195.335 31.1244 195.69 29.6681 195.69 27.9748C195.69 26.2815 195.335 24.8252 194.623 23.606C193.946 22.3868 192.947 21.4555 191.626 20.812C190.339 20.1347 188.764 19.796 186.902 19.796C185.107 19.796 183.549 20.1347 182.228 20.812C180.907 21.4555 179.891 22.3868 179.18 23.606C178.469 24.8252 178.113 26.2815 178.113 27.9748C178.113 29.6681 178.469 31.1244 179.18 32.3436C179.891 33.5628 180.907 34.5111 182.228 35.1884C183.549 35.8319 185.107 36.1536 186.902 36.1536Z" stroke="black" stroke-width="2" mask="url(#path-1-outside-1_6_142)"/>
<path d="M13.0392 75.0068H22.742C22.9113 76.1583 23.4363 77.1743 24.3168 78.0548C25.1973 78.9353 26.3657 79.6127 27.822 80.0868C29.3121 80.5609 31.0393 80.798 33.0036 80.798C35.8145 80.798 38.0159 80.4085 39.6076 79.6296C41.2332 78.8507 42.046 77.75 42.046 76.3276C42.046 75.2439 41.5719 74.4141 40.6236 73.8384C39.7092 73.2288 37.982 72.7885 35.442 72.5176L28.076 71.7556C22.9621 71.2476 19.2537 70.0623 16.9508 68.1996C14.6817 66.3369 13.5472 63.7969 13.5472 60.5796C13.5472 58.0396 14.2923 55.8721 15.7824 54.0772C17.3064 52.2823 19.4231 50.9107 22.1324 49.9624C24.8756 49.0141 28.076 48.54 31.7336 48.54C35.3573 48.54 38.5577 49.0649 41.3348 50.1148C44.1119 51.1647 46.3302 52.6209 47.9896 54.4836C49.6491 56.3463 50.5466 58.5307 50.682 61.0368H40.9792C40.8437 59.9869 40.3696 59.1064 39.5568 58.3952C38.7779 57.6501 37.7111 57.0744 36.3564 56.668C35.0356 56.2277 33.4439 56.0076 31.5812 56.0076C29.0073 56.0076 26.9584 56.3801 25.4344 57.1252C23.9443 57.8364 23.1992 58.8693 23.1992 60.224C23.1992 61.24 23.6395 62.0359 24.52 62.6116C25.4344 63.1873 27.0431 63.6107 29.346 63.8816L37.1184 64.7452C40.6744 65.1177 43.5192 65.7104 45.6528 66.5232C47.7864 67.336 49.3273 68.4536 50.2756 69.876C51.2239 71.2984 51.698 73.0933 51.698 75.2608C51.698 77.8685 50.9022 80.1545 49.3104 82.1188C47.7526 84.0492 45.5512 85.5563 42.7064 86.64C39.8955 87.7237 36.6104 88.2656 32.8512 88.2656C28.9565 88.2656 25.536 87.7068 22.5896 86.5892C19.6771 85.4716 17.3741 83.9307 15.6808 81.9664C14.0213 79.9683 13.1408 77.6484 13.0392 75.0068ZM53.3831 65.5072V61.3924L59.3775 59.208L63.4415 50.7752H68.8263V58.4968H81.3232V65.5072H68.8263V75.0576C68.8263 77.2251 69.2666 78.7491 70.1471 79.6296C71.0277 80.4763 72.6025 80.8996 74.8716 80.8996C76.3278 80.8996 77.5978 80.7811 78.6815 80.544C79.7991 80.2731 80.849 79.9175 81.8311 79.4772V86.64C80.8151 87.0464 79.4774 87.4189 77.8179 87.7576C76.1923 88.0963 74.499 88.2656 72.7379 88.2656C69.6561 88.2656 67.1161 87.7745 65.118 86.7924C63.1537 85.8103 61.6974 84.4387 60.7491 82.6776C59.8347 80.8827 59.3775 78.7829 59.3775 76.3784V65.5072H53.3831ZM98.5352 88.2148C95.8259 88.2148 93.523 87.6729 91.6264 86.5892C89.7299 85.4716 88.2736 83.8968 87.2576 81.8648C86.2755 79.8328 85.7844 77.4283 85.7844 74.6512V58.4968H95.2332V73.2796C95.2332 75.6164 95.792 77.4113 96.9096 78.6644C98.0272 79.9175 99.6359 80.544 101.736 80.544C103.293 80.544 104.614 80.2223 105.698 79.5788C106.782 78.9353 107.611 78.004 108.187 76.7848C108.797 75.5656 109.102 74.1263 109.102 72.4668L112.048 74.0416C111.709 77.0896 110.897 79.6804 109.61 81.814C108.357 83.9137 106.765 85.5055 104.834 86.5892C102.938 87.6729 100.838 88.2148 98.5352 88.2148ZM110.93 87.4528L109.102 76.1752V58.4968H118.55V77.5976L120.379 87.4528H110.93ZM151.452 87.4528L150.182 76.5308L151.909 73.0764L150.233 68.7076L152.57 48.3368H162.374L159.479 72.2636L161.206 87.4528H151.452ZM153.637 72.9748C153.129 76.0567 152.163 78.7491 150.741 81.052C149.319 83.3211 147.524 85.0991 145.356 86.386C143.189 87.6391 140.75 88.2656 138.041 88.2656C135.196 88.2656 132.69 87.6221 130.523 86.3352C128.389 85.0483 126.713 83.2703 125.493 81.0012C124.274 78.6983 123.665 76.0228 123.665 72.9748C123.665 69.9268 124.274 67.2683 125.493 64.9992C126.713 62.6963 128.389 60.9013 130.523 59.6144C132.69 58.3275 135.196 57.684 138.041 57.684C140.75 57.684 143.189 58.3275 145.356 59.6144C147.524 60.8675 149.319 62.6285 150.741 64.8976C152.197 67.1667 153.162 69.8591 153.637 72.9748ZM133.215 72.9748C133.215 74.5327 133.537 75.9212 134.18 77.1404C134.824 78.3257 135.704 79.274 136.822 79.9852C137.973 80.6625 139.294 81.0012 140.784 81.0012C142.274 81.0012 143.68 80.6625 145.001 79.9852C146.355 79.274 147.541 78.3257 148.557 77.1404C149.573 75.9212 150.335 74.5327 150.843 72.9748C150.335 71.4169 149.573 70.0453 148.557 68.86C147.541 67.6408 146.355 66.6925 145.001 66.0152C143.68 65.304 142.274 64.9484 140.784 64.9484C139.294 64.9484 137.973 65.304 136.822 66.0152C135.704 66.6925 134.824 67.6408 134.18 68.86C133.537 70.0453 133.215 71.4169 133.215 72.9748ZM166.558 58.0904L171.232 59.0556L175.956 58.0904V87.4528H166.558V58.0904ZM171.282 55.4488C169.623 55.4488 168.268 55.0255 167.218 54.1788C166.169 53.2983 165.644 52.1468 165.644 50.7244C165.644 49.2681 166.169 48.1167 167.218 47.27C168.268 46.4233 169.623 46 171.282 46C172.976 46 174.33 46.4233 175.346 47.27C176.362 48.1167 176.87 49.2681 176.87 50.7244C176.87 52.1468 176.362 53.2983 175.346 54.1788C174.33 55.0255 172.976 55.4488 171.282 55.4488ZM198.902 88.2656C195.244 88.2656 192.044 87.6221 189.301 86.3352C186.557 85.0483 184.424 83.2533 182.9 80.9504C181.376 78.6475 180.614 75.9889 180.614 72.9748C180.614 69.9268 181.376 67.2683 182.9 64.9992C184.424 62.6963 186.557 60.9013 189.301 59.6144C192.078 58.3275 195.278 57.684 198.902 57.684C202.559 57.684 205.76 58.3275 208.503 59.6144C211.28 60.9013 213.431 62.6963 214.955 64.9992C216.479 67.2683 217.241 69.9268 217.241 72.9748C217.241 76.0228 216.479 78.6983 214.955 81.0012C213.431 83.2703 211.28 85.0483 208.503 86.3352C205.76 87.6221 202.559 88.2656 198.902 88.2656ZM198.902 81.1536C200.764 81.1536 202.339 80.8319 203.626 80.1884C204.947 79.5111 205.946 78.5628 206.623 77.3436C207.335 76.1244 207.69 74.6681 207.69 72.9748C207.69 71.2815 207.335 69.8252 206.623 68.606C205.946 67.3868 204.947 66.4555 203.626 65.812C202.339 65.1347 200.764 64.796 198.902 64.796C197.107 64.796 195.549 65.1347 194.228 65.812C192.907 66.4555 191.891 67.3868 191.18 68.606C190.469 69.8252 190.113 71.2815 190.113 72.9748C190.113 74.6681 190.469 76.1244 191.18 77.3436C191.891 78.5628 192.907 79.5111 194.228 80.1884C195.549 80.8319 197.107 81.1536 198.902 81.1536Z" stroke="black" stroke-width="2" mask="url(#path-1-outside-1_6_142)"/>
</svg>
